<svg xmlns="http://www.w3.org/2000/svg" xmlns:xlink="http://www.w3.org/1999/xlink" contentStyleType="text/css" data-diagram-type="SEQUENCE" height="928px" preserveAspectRatio="none" style="width:1522px;height:928px;background:#FFFFFF;" version="1.1" viewBox="0 0 1522 928" width="1522px" zoomAndPan="magnify"><defs/><g><rect fill="#FFFFFF" height="100.3984" style="stroke:#181818;stroke-width:1;" width="10" x="489.1826" y="452.0234"/><rect fill="#FFFFFF" height="508.9297" style="stroke:#181818;stroke-width:1;" width="10" x="1432.0148" y="165.6953"/><rect fill="none" height="542.1953" style="stroke:#000000;stroke-width:1.5;" width="1506.1696" x="10" y="98.2969"/><rect fill="none" height="219.7344" style="stroke:#000000;stroke-width:1.5;" width="1063.0914" x="443.0781" y="413.7578"/><rect fill="none" height="133.6641" style="stroke:#000000;stroke-width:1.5;" width="809.2819" x="443.0781" y="696.625"/><line style="stroke:#181818;stroke-width:0.5;stroke-dasharray:5.0,5.0;" x1="38" x2="38" y1="81.2969" y2="847.2891"/><line style="stroke:#181818;stroke-width:0.5;stroke-dasharray:5.0,5.0;" x1="116.9102" x2="116.9102" y1="81.2969" y2="847.2891"/><line style="stroke:#181818;stroke-width:0.5;stroke-dasharray:5.0,5.0;" x1="236.3389" x2="236.3389" y1="81.2969" y2="847.2891"/><line style="stroke:#181818;stroke-width:0.5;stroke-dasharray:5.0,5.0;" x1="373.4775" x2="373.4775" y1="81.2969" y2="847.2891"/><line style="stroke:#181818;stroke-width:0.5;stroke-dasharray:5.0,5.0;" x1="494.0781" x2="494.0781" y1="81.2969" y2="847.2891"/><line style="stroke:#181818;stroke-width:0.5;stroke-dasharray:5.0,5.0;" x1="639.8512" x2="639.8512" y1="81.2969" y2="847.2891"/><line style="stroke:#181818;stroke-width:0.5;stroke-dasharray:5.0,5.0;" x1="773.5143" x2="773.5143" y1="81.2969" y2="847.2891"/><line style="stroke:#181818;stroke-width:0.5;stroke-dasharray:5.0,5.0;" x1="899.6149" x2="899.6149" y1="81.2969" y2="847.2891"/><line style="stroke:#181818;stroke-width:0.5;stroke-dasharray:5.0,5.0;" x1="1044.4264" x2="1044.4264" y1="81.2969" y2="847.2891"/><line style="stroke:#181818;stroke-width:0.5;stroke-dasharray:5.0,5.0;" x1="1184.0739" x2="1184.0739" y1="81.2969" y2="847.2891"/><line style="stroke:#181818;stroke-width:0.5;stroke-dasharray:5.0,5.0;" x1="1309.36" x2="1309.36" y1="81.2969" y2="847.2891"/><line style="stroke:#181818;stroke-width:0.5;stroke-dasharray:5.0,5.0;" x1="1436.86" x2="1436.86" y1="81.2969" y2="847.2891"/><text fill="#000000" font-family="sans-serif" font-size="14" lengthAdjust="spacing" textLength="31.9102" x="20" y="77.9951">User</text><ellipse cx="38.9551" cy="13.5" fill="#E2E2F0" rx="8" ry="8" style="stroke:#181818;stroke-width:0.5;"/><path d="M38.9551,21.5 L38.9551,48.5 M25.9551,29.5 L51.9551,29.5 M38.9551,48.5 L25.9551,63.5 M38.9551,48.5 L51.9551,63.5 " fill="none" style="stroke:#181818;stroke-width:0.5;"/><text fill="#000000" font-family="sans-serif" font-size="14" lengthAdjust="spacing" textLength="31.9102" x="20" y="859.2842">User</text><ellipse cx="38.9551" cy="871.0859" fill="#E2E2F0" rx="8" ry="8" style="stroke:#181818;stroke-width:0.5;"/><path d="M38.9551,879.0859 L38.9551,906.0859 M25.9551,887.0859 L51.9551,887.0859 M38.9551,906.0859 L25.9551,921.0859 M38.9551,906.0859 L51.9551,921.0859 " fill="none" style="stroke:#181818;stroke-width:0.5;"/><rect fill="#E2E2F0" height="30.2969" rx="2.5" ry="2.5" style="stroke:#181818;stroke-width:0.5;" width="99.4287" x="67.9102" y="50"/><text fill="#000000" font-family="sans-serif" font-size="14" lengthAdjust="spacing" textLength="85.4287" x="74.9102" y="69.9951">WakerClient</text><rect fill="#E2E2F0" height="30.2969" rx="2.5" ry="2.5" style="stroke:#181818;stroke-width:0.5;" width="99.4287" x="67.9102" y="846.2891"/><text fill="#000000" font-family="sans-serif" font-size="14" lengthAdjust="spacing" textLength="85.4287" x="74.9102" y="866.2842">WakerClient</text><rect fill="#E2E2F0" height="30.2969" rx="2.5" ry="2.5" style="stroke:#181818;stroke-width:0.5;" width="118.1387" x="177.3389" y="50"/><text fill="#000000" font-family="sans-serif" font-size="14" lengthAdjust="spacing" textLength="104.1387" x="184.3389" y="69.9951">ListeningClient</text><rect fill="#E2E2F0" height="30.2969" rx="2.5" ry="2.5" style="stroke:#181818;stroke-width:0.5;" width="118.1387" x="177.3389" y="846.2891"/><text fill="#000000" font-family="sans-serif" font-size="14" lengthAdjust="spacing" textLength="104.1387" x="184.3389" y="866.2842">ListeningClient</text><rect fill="#E2E2F0" height="30.2969" rx="2.5" ry="2.5" style="stroke:#181818;stroke-width:0.5;" width="137.6006" x="305.4775" y="50"/><text fill="#000000" font-family="sans-serif" font-size="14" lengthAdjust="spacing" textLength="123.6006" x="312.4775" y="69.9951">RecognitionClient</text><rect fill="#E2E2F0" height="30.2969" rx="2.5" ry="2.5" style="stroke:#181818;stroke-width:0.5;" width="137.6006" x="305.4775" y="846.2891"/><text fill="#000000" font-family="sans-serif" font-size="14" lengthAdjust="spacing" textLength="123.6006" x="312.4775" y="866.2842">RecognitionClient</text><rect fill="#E2E2F0" height="30.2969" rx="2.5" ry="2.5" style="stroke:#181818;stroke-width:0.5;" width="82.209" x="453.0781" y="50"/><text fill="#000000" font-family="sans-serif" font-size="14" lengthAdjust="spacing" textLength="68.209" x="460.0781" y="69.9951">LLMClient</text><rect fill="#E2E2F0" height="30.2969" rx="2.5" ry="2.5" style="stroke:#181818;stroke-width:0.5;" width="82.209" x="453.0781" y="846.2891"/><text fill="#000000" font-family="sans-serif" font-size="14" lengthAdjust="spacing" textLength="68.209" x="460.0781" y="866.2842">LLMClient</text><rect fill="#E2E2F0" height="30.2969" rx="2.5" ry="2.5" style="stroke:#181818;stroke-width:0.5;" width="140.6631" x="569.8512" y="50"/><text fill="#000000" font-family="sans-serif" font-size="14" lengthAdjust="spacing" textLength="126.6631" x="576.8512" y="69.9951">ChatSessionClient</text><rect fill="#E2E2F0" height="30.2969" rx="2.5" ry="2.5" style="stroke:#181818;stroke-width:0.5;" width="140.6631" x="569.8512" y="846.2891"/><text fill="#000000" font-family="sans-serif" font-size="14" lengthAdjust="spacing" textLength="126.6631" x="576.8512" y="866.2842">ChatSessionClient</text><rect fill="#E2E2F0" height="30.2969" rx="2.5" ry="2.5" style="stroke:#181818;stroke-width:0.5;" width="106.1006" x="720.5143" y="50"/><text fill="#000000" font-family="sans-serif" font-size="14" lengthAdjust="spacing" textLength="92.1006" x="727.5143" y="69.9951">SpeechClient</text><rect fill="#E2E2F0" height="30.2969" rx="2.5" ry="2.5" style="stroke:#181818;stroke-width:0.5;" width="106.1006" x="720.5143" y="846.2891"/><text fill="#000000" font-family="sans-serif" font-size="14" lengthAdjust="spacing" textLength="92.1006" x="727.5143" y="866.2842">SpeechClient</text><rect fill="#E2E2F0" height="30.2969" rx="2.5" ry="2.5" style="stroke:#181818;stroke-width:0.5;" width="127.8115" x="836.6149" y="50"/><text fill="#000000" font-family="sans-serif" font-size="14" lengthAdjust="spacing" textLength="113.8115" x="843.6149" y="69.9951">PlaySoundClient</text><rect fill="#E2E2F0" height="30.2969" rx="2.5" ry="2.5" style="stroke:#181818;stroke-width:0.5;" width="127.8115" x="836.6149" y="846.2891"/><text fill="#000000" font-family="sans-serif" font-size="14" lengthAdjust="spacing" textLength="113.8115" x="843.6149" y="866.2842">PlaySoundClient</text><rect fill="#E2E2F0" height="30.2969" rx="2.5" ry="2.5" style="stroke:#181818;stroke-width:0.5;" width="141.6475" x="974.4264" y="50"/><text fill="#000000" font-family="sans-serif" font-size="14" lengthAdjust="spacing" textLength="127.6475" x="981.4264" y="69.9951">HistoryStoreClient</text><rect fill="#E2E2F0" height="30.2969" rx="2.5" ry="2.5" style="stroke:#181818;stroke-width:0.5;" width="141.6475" x="974.4264" y="846.2891"/><text fill="#000000" font-family="sans-serif" font-size="14" lengthAdjust="spacing" textLength="127.6475" x="981.4264" y="866.2842">HistoryStoreClient</text><rect fill="#E2E2F0" height="30.2969" rx="2.5" ry="2.5" style="stroke:#181818;stroke-width:0.5;" width="116.2861" x="1126.0739" y="50"/><text fill="#000000" font-family="sans-serif" font-size="14" lengthAdjust="spacing" textLength="102.2861" x="1133.0739" y="69.9951">FileStoreClient</text><rect fill="#E2E2F0" height="30.2969" rx="2.5" ry="2.5" style="stroke:#181818;stroke-width:0.5;" width="116.2861" x="1126.0739" y="846.2891"/><text fill="#000000" font-family="sans-serif" font-size="14" lengthAdjust="spacing" textLength="102.2861" x="1133.0739" y="866.2842">FileStoreClient</text><rect fill="#E2E2F0" height="30.2969" rx="2.5" ry="2.5" style="stroke:#181818;stroke-width:0.5;" width="115.5" x="1252.36" y="50"/><text fill="#000000" font-family="sans-serif" font-size="14" lengthAdjust="spacing" textLength="101.5" x="1259.36" y="69.9951">GreetingClient</text><rect fill="#E2E2F0" height="30.2969" rx="2.5" ry="2.5" style="stroke:#181818;stroke-width:0.5;" width="115.5" x="1252.36" y="846.2891"/><text fill="#000000" font-family="sans-serif" font-size="14" lengthAdjust="spacing" textLength="101.5" x="1259.36" y="866.2842">GreetingClient</text><rect fill="#E2E2F0" height="30.2969" rx="2.5" ry="2.5" style="stroke:#181818;stroke-width:0.5;" width="118.3096" x="1377.86" y="50"/><text fill="#000000" font-family="sans-serif" font-size="14" lengthAdjust="spacing" textLength="104.3096" x="1384.86" y="69.9951">AssistantClient</text><rect fill="#E2E2F0" height="30.2969" rx="2.5" ry="2.5" style="stroke:#181818;stroke-width:0.5;" width="118.3096" x="1377.86" y="846.2891"/><text fill="#000000" font-family="sans-serif" font-size="14" lengthAdjust="spacing" textLength="104.3096" x="1384.86" y="866.2842">AssistantClient</text><rect fill="#FFFFFF" height="100.3984" style="stroke:#181818;stroke-width:1;" width="10" x="489.1826" y="452.0234"/><rect fill="#FFFFFF" height="508.9297" style="stroke:#181818;stroke-width:1;" width="10" x="1432.0148" y="165.6953"/><path d="M10,98.2969 L86.624,98.2969 L86.624,105.4297 L76.624,115.4297 L10,115.4297 L10,98.2969 " fill="#EEEEEE" style="stroke:#000000;stroke-width:1.5;"/><rect fill="none" height="542.1953" style="stroke:#000000;stroke-width:1.5;" width="1506.1696" x="10" y="98.2969"/><text fill="#000000" font-family="sans-serif" font-size="13" font-weight="bold" lengthAdjust="spacing" textLength="31.624" x="25" y="111.3638">loop</text><text fill="#000000" font-family="sans-serif" font-size="11" font-weight="bold" lengthAdjust="spacing" textLength="54.0544" x="101.624" y="110.5073">[&#29992;&#25143;&#20132;&#20114;]</text><polygon fill="#181818" points="105.6245,132.5625,115.6245,136.5625,105.6245,140.5625,109.6245,136.5625" style="stroke:#181818;stroke-width:1;"/><line style="stroke:#181818;stroke-width:1;" x1="38.9551" x2="111.6245" y1="136.5625" y2="136.5625"/><text fill="#000000" font-family="sans-serif" font-size="13" lengthAdjust="spacing" textLength="52.0001" x="45.9551" y="131.4966">&#21796;&#37266;&#21161;&#25163;</text><polygon fill="#181818" points="1420.0148,161.6953,1430.0148,165.6953,1420.0148,169.6953,1424.0148,165.6953" style="stroke:#181818;stroke-width:1;"/><line style="stroke:#181818;stroke-width:1;" x1="117.6245" x2="1426.0148" y1="165.6953" y2="165.6953"/><text fill="#000000" font-family="sans-serif" font-size="13" lengthAdjust="spacing" textLength="52.0001" x="124.6245" y="160.6294">&#36890;&#30693;&#21796;&#37266;</text><polygon fill="#181818" points="1321.11,190.8281,1311.11,194.8281,1321.11,198.8281,1317.11,194.8281" style="stroke:#181818;stroke-width:1;"/><line style="stroke:#181818;stroke-width:1;" x1="1315.11" x2="1431.0148" y1="194.8281" y2="194.8281"/><text fill="#000000" font-family="sans-serif" font-size="13" lengthAdjust="spacing" textLength="65.0001" x="1327.11" y="189.7622">&#33719;&#21462;&#38382;&#20505;&#35821;</text><polygon fill="#181818" points="1420.0148,219.9609,1430.0148,223.9609,1420.0148,227.9609,1424.0148,223.9609" style="stroke:#181818;stroke-width:1;"/><line style="stroke:#181818;stroke-width:1;" x1="1310.11" x2="1426.0148" y1="223.9609" y2="223.9609"/><text fill="#000000" font-family="sans-serif" font-size="13" lengthAdjust="spacing" textLength="65.0001" x="1317.11" y="218.895">&#36820;&#22238;&#38382;&#20505;&#35821;</text><polygon fill="#181818" points="784.5646,249.0938,774.5646,253.0938,784.5646,257.0938,780.5646,253.0938" style="stroke:#181818;stroke-width:1;"/><line style="stroke:#181818;stroke-width:1;" x1="778.5646" x2="1431.0148" y1="253.0938" y2="253.0938"/><text fill="#000000" font-family="sans-serif" font-size="13" lengthAdjust="spacing" textLength="65.0001" x="790.5646" y="248.0278">&#25773;&#25918;&#38382;&#20505;&#35821;</text><polygon fill="#181818" points="247.4082,278.2266,237.4082,282.2266,247.4082,286.2266,243.4082,282.2266" style="stroke:#181818;stroke-width:1;"/><line style="stroke:#181818;stroke-width:1;" x1="241.4082" x2="1431.0148" y1="282.2266" y2="282.2266"/><text fill="#000000" font-family="sans-serif" font-size="13" lengthAdjust="spacing" textLength="78.0001" x="253.4082" y="277.1606">&#30417;&#21548;&#29992;&#25143;&#35821;&#38899;</text><polygon fill="#181818" points="1420.0148,307.3594,1430.0148,311.3594,1420.0148,315.3594,1424.0148,311.3594" style="stroke:#181818;stroke-width:1;"/><line style="stroke:#181818;stroke-width:1;" x1="236.4082" x2="1426.0148" y1="311.3594" y2="311.3594"/><text fill="#000000" font-family="sans-serif" font-size="13" lengthAdjust="spacing" textLength="78.0001" x="243.4082" y="306.2935">&#36820;&#22238;&#38899;&#39057;&#25968;&#25454;</text><polygon fill="#181818" points="911.5206,336.4922,901.5206,340.4922,911.5206,344.4922,907.5206,340.4922" style="stroke:#181818;stroke-width:1;"/><line style="stroke:#181818;stroke-width:1;" x1="905.5206" x2="1431.0148" y1="340.4922" y2="340.4922"/><text fill="#000000" font-family="sans-serif" font-size="13" lengthAdjust="spacing" textLength="65.0001" x="917.5206" y="335.4263">&#25773;&#25918;&#25552;&#31034;&#38899;</text><polygon fill="#181818" points="385.2778,365.625,375.2778,369.625,385.2778,373.625,381.2778,369.625" style="stroke:#181818;stroke-width:1;"/><line style="stroke:#181818;stroke-width:1;" x1="379.2778" x2="1431.0148" y1="369.625" y2="369.625"/><text fill="#000000" font-family="sans-serif" font-size="13" lengthAdjust="spacing" textLength="65.0001" x="391.2778" y="364.5591">&#35821;&#38899;&#36716;&#25991;&#26412;</text><polygon fill="#181818" points="1420.0148,394.7578,1430.0148,398.7578,1420.0148,402.7578,1424.0148,398.7578" style="stroke:#181818;stroke-width:1;"/><line style="stroke:#181818;stroke-width:1;" x1="374.2778" x2="1426.0148" y1="398.7578" y2="398.7578"/><text fill="#000000" font-family="sans-serif" font-size="13" lengthAdjust="spacing" textLength="52.0001" x="381.2778" y="393.6919">&#36820;&#22238;&#25991;&#26412;</text><path d="M443.0781,413.7578 L507.521,413.7578 L507.521,420.8906 L497.521,430.8906 L443.0781,430.8906 L443.0781,413.7578 " fill="#EEEEEE" style="stroke:#000000;stroke-width:1.5;"/><rect fill="none" height="219.7344" style="stroke:#000000;stroke-width:1.5;" width="1063.0914" x="443.0781" y="413.7578"/><text fill="#000000" font-family="sans-serif" font-size="13" font-weight="bold" lengthAdjust="spacing" textLength="19.4429" x="458.0781" y="426.8247">alt</text><text fill="#000000" font-family="sans-serif" font-size="11" font-weight="bold" lengthAdjust="spacing" textLength="65.0543" x="522.521" y="425.9683">[&#29992;&#25143;&#26377;&#38382;&#39064;]</text><polygon fill="#181818" points="510.1826,448.0234,500.1826,452.0234,510.1826,456.0234,506.1826,452.0234" style="stroke:#181818;stroke-width:1;"/><line style="stroke:#181818;stroke-width:1;" x1="504.1826" x2="1431.0148" y1="452.0234" y2="452.0234"/><text fill="#000000" font-family="sans-serif" font-size="13" lengthAdjust="spacing" textLength="78.0001" x="516.1826" y="446.9575">&#22788;&#29702;&#29992;&#25143;&#35831;&#27714;</text><line style="stroke:#181818;stroke-width:1;" x1="499.1826" x2="541.1826" y1="481.1563" y2="481.1563"/><line style="stroke:#181818;stroke-width:1;" x1="541.1826" x2="541.1826" y1="481.1563" y2="494.1563"/><line style="stroke:#181818;stroke-width:1;" x1="500.1826" x2="541.1826" y1="494.1563" y2="494.1563"/><polygon fill="#181818" points="510.1826,490.1563,500.1826,494.1563,510.1826,498.1563,506.1826,494.1563" style="stroke:#181818;stroke-width:1;"/><text fill="#000000" font-family="sans-serif" font-size="13" lengthAdjust="spacing" textLength="52.0001" x="506.1826" y="476.0903">&#29983;&#25104;&#22238;&#31572;</text><polygon fill="#181818" points="628.1828,519.2891,638.1828,523.2891,628.1828,527.2891,632.1828,523.2891" style="stroke:#181818;stroke-width:1;"/><line style="stroke:#181818;stroke-width:1;" x1="499.1826" x2="634.1828" y1="523.2891" y2="523.2891"/><text fill="#000000" font-family="sans-serif" font-size="13" lengthAdjust="spacing" textLength="117.0001" x="506.1826" y="518.2231">&#28155;&#21152;&#22238;&#31572;&#21040;&#20250;&#35805;&#21382;&#21490;</text><polygon fill="#181818" points="1420.0148,548.4219,1430.0148,552.4219,1420.0148,556.4219,1424.0148,552.4219" style="stroke:#181818;stroke-width:1;"/><line style="stroke:#181818;stroke-width:1;" x1="494.1826" x2="1426.0148" y1="552.4219" y2="552.4219"/><text fill="#000000" font-family="sans-serif" font-size="13" lengthAdjust="spacing" textLength="52.0001" x="501.1826" y="547.356">&#36820;&#22238;&#22238;&#31572;</text><polygon fill="#181818" points="784.5646,577.5547,774.5646,581.5547,784.5646,585.5547,780.5646,581.5547" style="stroke:#181818;stroke-width:1;"/><line style="stroke:#181818;stroke-width:1;" x1="778.5646" x2="1431.0148" y1="581.5547" y2="581.5547"/><text fill="#000000" font-family="sans-serif" font-size="13" lengthAdjust="spacing" textLength="52.0001" x="790.5646" y="576.4888">&#25773;&#25918;&#22238;&#31572;</text><line style="stroke:#000000;stroke-width:1;stroke-dasharray:2.0,2.0;" x1="443.0781" x2="1506.1696" y1="590.5547" y2="590.5547"/><text fill="#000000" font-family="sans-serif" font-size="11" font-weight="bold" lengthAdjust="spacing" textLength="65.0543" x="448.0781" y="600.7651">[&#29992;&#25143;&#26080;&#38382;&#39064;]</text><polygon fill="#181818" points="784.5646,621.4922,774.5646,625.4922,784.5646,629.4922,780.5646,625.4922" style="stroke:#181818;stroke-width:1;"/><line style="stroke:#181818;stroke-width:1;" x1="778.5646" x2="1431.0148" y1="625.4922" y2="625.4922"/><text fill="#000000" font-family="sans-serif" font-size="13" lengthAdjust="spacing" textLength="78.0001" x="790.5646" y="620.4263">&#25773;&#25918;&#20241;&#24687;&#25552;&#31034;</text><line style="stroke:#181818;stroke-width:1;" x1="494.1826" x2="536.1826" y1="668.625" y2="668.625"/><line style="stroke:#181818;stroke-width:1;" x1="536.1826" x2="536.1826" y1="668.625" y2="681.625"/><line style="stroke:#181818;stroke-width:1;" x1="495.1826" x2="536.1826" y1="681.625" y2="681.625"/><polygon fill="#181818" points="505.1826,677.625,495.1826,681.625,505.1826,685.625,501.1826,681.625" style="stroke:#181818;stroke-width:1;"/><text fill="#000000" font-family="sans-serif" font-size="13" lengthAdjust="spacing" textLength="65.0001" x="501.1826" y="663.5591">&#35745;&#26102;&#22120;&#21551;&#21160;</text><path d="M443.0781,696.625 L507.521,696.625 L507.521,703.7578 L497.521,713.7578 L443.0781,713.7578 L443.0781,696.625 " fill="#EEEEEE" style="stroke:#000000;stroke-width:1.5;"/><rect fill="none" height="133.6641" style="stroke:#000000;stroke-width:1.5;" width="809.2819" x="443.0781" y="696.625"/><text fill="#000000" font-family="sans-serif" font-size="13" font-weight="bold" lengthAdjust="spacing" textLength="19.4429" x="458.0781" y="709.6919">alt</text><text fill="#000000" font-family="sans-serif" font-size="11" font-weight="bold" lengthAdjust="spacing" textLength="54.0544" x="522.521" y="708.8354">[&#20250;&#35805;&#36229;&#26102;]</text><polygon fill="#181818" points="1033.2501,730.8906,1043.2501,734.8906,1033.2501,738.8906,1037.2501,734.8906" style="stroke:#181818;stroke-width:1;"/><line style="stroke:#181818;stroke-width:1;" x1="494.1826" x2="1039.2501" y1="734.8906" y2="734.8906"/><text fill="#000000" font-family="sans-serif" font-size="13" lengthAdjust="spacing" textLength="78.0001" x="501.1826" y="729.8247">&#23384;&#20648;&#20250;&#35805;&#21382;&#21490;</text><polygon fill="#181818" points="1172.2169,760.0234,1182.2169,764.0234,1172.2169,768.0234,1176.2169,764.0234" style="stroke:#181818;stroke-width:1;"/><line style="stroke:#181818;stroke-width:1;" x1="1045.2501" x2="1178.2169" y1="764.0234" y2="764.0234"/><text fill="#000000" font-family="sans-serif" font-size="13" lengthAdjust="spacing" textLength="78.0001" x="1052.2501" y="758.9575">&#23384;&#20648;&#38899;&#39057;&#25991;&#20214;</text><polygon fill="#181818" points="628.1828,789.1563,638.1828,793.1563,628.1828,797.1563,632.1828,793.1563" style="stroke:#181818;stroke-width:1;"/><line style="stroke:#181818;stroke-width:1;" x1="494.1826" x2="634.1828" y1="793.1563" y2="793.1563"/><text fill="#000000" font-family="sans-serif" font-size="13" lengthAdjust="spacing" textLength="52.0001" x="501.1826" y="788.0903">&#32467;&#26463;&#20250;&#35805;</text><polygon fill="#181818" points="628.1828,818.2891,638.1828,822.2891,628.1828,826.2891,632.1828,822.2891" style="stroke:#181818;stroke-width:1;"/><line style="stroke:#181818;stroke-width:1;" x1="494.1826" x2="634.1828" y1="822.2891" y2="822.2891"/><text fill="#000000" font-family="sans-serif" font-size="13" lengthAdjust="spacing" textLength="65.0001" x="501.1826" y="817.2231">&#21019;&#24314;&#26032;&#20250;&#35805;</text><!--SRC=[XLHTQzim57tthn1ztn_mms0KjZqaC1R6deqhMZDZ1riRzAqhMvfch74oBscRjkvA1XdaerkXWQJR_embs_zYiXKBoQjJWqroTCwzL-TUITEHxO1NBdIKkkOWGpVgceN0nclj3NGsJGDQQ0DeBiZ-ovIAuI9e6TQsGEEOJ7q9TNlRCf1XMm9PG0kHArKnPgKgBs_kQAW6NLUE9g0olLQ7KDyHc0oGIIzCRRTclxMs11x7PEfpkaVRsQtH3nJO8YmBdXecBB8v9bEVEH0YsT8SKkXZsdOTHFw8DEVXOXWkkWgWJzezyEWnwv4Ai3zC6btS-a4EFsNh6PuIdb1tN4GJiV0gIFPEe-0x4oWPLzEHyKv3iCZD5WjO6ZAlJWNnqHotUqb_YlTEujaa4-IhzoQF__fuS24Bxid0kgK2qfqG_y-3T3w1AeW67UoDcLrKaGGtcOWprbKLt2HN7VBrcdoUAcMf-7panP6s5mqNQPuoYJ3oD5LMK_nxJ7e7v6oSQGJ2cl9M0jOn4wr6WfmTKdkIg-CCB_EdKgKZClmGUOtScJdvkSybV03IOvU3z3VNHdv0cXuj8fhuHO9m1gadyoLkNJ8YRbw7TwVnx1mVDN3xLr5Niir2aYqe5RTkb_BG276WwSBShlxbmtR9WSAx3da_OsrcuUZbaBwAw50y_KRwj_XaXBqPReqKeUxYgLBIxZ5dujkFLAK8heWt2ktPv1ZlZ_vpKIIb8dwnv8hLAFSEmgKKNUfLjFn2pWCMl9I4cmEyN93UgfNfnly1]--></g></svg>