<svg xmlns="http://www.w3.org/2000/svg" xmlns:xlink="http://www.w3.org/1999/xlink" contentStyleType="text/css" data-diagram-type="SEQUENCE" height="928px" preserveAspectRatio="none" style="width:1682px;height:928px;background:#FFFFFF;" version="1.1" viewBox="0 0 1682 928" width="1682px" zoomAndPan="magnify"><defs/><g><rect fill="#FFFFFF" height="100.3984" style="stroke:#181818;stroke-width:1;" width="10" x="553.9126" y="452.0234"/><rect fill="#FFFFFF" height="508.9297" style="stroke:#181818;stroke-width:1;" width="10" x="1591.8594" y="165.6953"/><rect fill="none" height="542.1953" style="stroke:#000000;stroke-width:1.5;" width="1666.0142" x="10" y="98.2969"/><rect fill="none" height="219.7344" style="stroke:#000000;stroke-width:1.5;" width="1158.2061" x="507.8081" y="413.7578"/><rect fill="none" height="133.6641" style="stroke:#000000;stroke-width:1.5;" width="899.4248" x="507.8081" y="696.625"/><line style="stroke:#181818;stroke-width:0.5;stroke-dasharray:5.0,5.0;" x1="38" x2="38" y1="81.2969" y2="847.2891"/><line style="stroke:#181818;stroke-width:0.5;stroke-dasharray:5.0,5.0;" x1="181.6401" x2="181.6401" y1="81.2969" y2="847.2891"/><line style="stroke:#181818;stroke-width:0.5;stroke-dasharray:5.0,5.0;" x1="301.0688" x2="301.0688" y1="81.2969" y2="847.2891"/><line style="stroke:#181818;stroke-width:0.5;stroke-dasharray:5.0,5.0;" x1="438.2075" x2="438.2075" y1="81.2969" y2="847.2891"/><line style="stroke:#181818;stroke-width:0.5;stroke-dasharray:5.0,5.0;" x1="558.8081" x2="558.8081" y1="81.2969" y2="847.2891"/><line style="stroke:#181818;stroke-width:0.5;stroke-dasharray:5.0,5.0;" x1="794.7241" x2="794.7241" y1="81.2969" y2="847.2891"/><line style="stroke:#181818;stroke-width:0.5;stroke-dasharray:5.0,5.0;" x1="928.3872" x2="928.3872" y1="81.2969" y2="847.2891"/><line style="stroke:#181818;stroke-width:0.5;stroke-dasharray:5.0,5.0;" x1="1054.4878" x2="1054.4878" y1="81.2969" y2="847.2891"/><line style="stroke:#181818;stroke-width:0.5;stroke-dasharray:5.0,5.0;" x1="1199.2993" x2="1199.2993" y1="81.2969" y2="847.2891"/><line style="stroke:#181818;stroke-width:0.5;stroke-dasharray:5.0,5.0;" x1="1338.9468" x2="1338.9468" y1="81.2969" y2="847.2891"/><line style="stroke:#181818;stroke-width:0.5;stroke-dasharray:5.0,5.0;" x1="1464.2329" x2="1464.2329" y1="81.2969" y2="847.2891"/><line style="stroke:#181818;stroke-width:0.5;stroke-dasharray:5.0,5.0;" x1="1596.7046" x2="1596.7046" y1="81.2969" y2="847.2891"/><text fill="#000000" font-family="sans-serif" font-size="14" lengthAdjust="spacing" textLength="31.9102" x="20" y="77.9951">User</text><ellipse cx="38.9551" cy="13.5" fill="#E2E2F0" rx="8" ry="8" style="stroke:#181818;stroke-width:0.5;"/><path d="M38.9551,21.5 L38.9551,48.5 M25.9551,29.5 L51.9551,29.5 M38.9551,48.5 L25.9551,63.5 M38.9551,48.5 L51.9551,63.5 " fill="none" style="stroke:#181818;stroke-width:0.5;"/><text fill="#000000" font-family="sans-serif" font-size="14" lengthAdjust="spacing" textLength="31.9102" x="20" y="859.2842">User</text><ellipse cx="38.9551" cy="871.0859" fill="#E2E2F0" rx="8" ry="8" style="stroke:#181818;stroke-width:0.5;"/><path d="M38.9551,879.0859 L38.9551,906.0859 M25.9551,887.0859 L51.9551,887.0859 M38.9551,906.0859 L25.9551,921.0859 M38.9551,906.0859 L51.9551,921.0859 " fill="none" style="stroke:#181818;stroke-width:0.5;"/><rect fill="#E2E2F0" height="30.2969" rx="2.5" ry="2.5" style="stroke:#181818;stroke-width:0.5;" width="99.4287" x="132.6401" y="50"/><text fill="#000000" font-family="sans-serif" font-size="14" lengthAdjust="spacing" textLength="85.4287" x="139.6401" y="69.9951">WakerClient</text><rect fill="#E2E2F0" height="30.2969" rx="2.5" ry="2.5" style="stroke:#181818;stroke-width:0.5;" width="99.4287" x="132.6401" y="846.2891"/><text fill="#000000" font-family="sans-serif" font-size="14" lengthAdjust="spacing" textLength="85.4287" x="139.6401" y="866.2842">WakerClient</text><rect fill="#E2E2F0" height="30.2969" rx="2.5" ry="2.5" style="stroke:#181818;stroke-width:0.5;" width="118.1387" x="242.0688" y="50"/><text fill="#000000" font-family="sans-serif" font-size="14" lengthAdjust="spacing" textLength="104.1387" x="249.0688" y="69.9951">ListeningClient</text><rect fill="#E2E2F0" height="30.2969" rx="2.5" ry="2.5" style="stroke:#181818;stroke-width:0.5;" width="118.1387" x="242.0688" y="846.2891"/><text fill="#000000" font-family="sans-serif" font-size="14" lengthAdjust="spacing" textLength="104.1387" x="249.0688" y="866.2842">ListeningClient</text><rect fill="#E2E2F0" height="30.2969" rx="2.5" ry="2.5" style="stroke:#181818;stroke-width:0.5;" width="137.6006" x="370.2075" y="50"/><text fill="#000000" font-family="sans-serif" font-size="14" lengthAdjust="spacing" textLength="123.6006" x="377.2075" y="69.9951">RecognitionClient</text><rect fill="#E2E2F0" height="30.2969" rx="2.5" ry="2.5" style="stroke:#181818;stroke-width:0.5;" width="137.6006" x="370.2075" y="846.2891"/><text fill="#000000" font-family="sans-serif" font-size="14" lengthAdjust="spacing" textLength="123.6006" x="377.2075" y="866.2842">RecognitionClient</text><rect fill="#E2E2F0" height="30.2969" rx="2.5" ry="2.5" style="stroke:#181818;stroke-width:0.5;" width="82.209" x="517.8081" y="50"/><text fill="#000000" font-family="sans-serif" font-size="14" lengthAdjust="spacing" textLength="68.209" x="524.8081" y="69.9951">LLMClient</text><rect fill="#E2E2F0" height="30.2969" rx="2.5" ry="2.5" style="stroke:#181818;stroke-width:0.5;" width="82.209" x="517.8081" y="846.2891"/><text fill="#000000" font-family="sans-serif" font-size="14" lengthAdjust="spacing" textLength="68.209" x="524.8081" y="866.2842">LLMClient</text><rect fill="#E2E2F0" height="30.2969" rx="2.5" ry="2.5" style="stroke:#181818;stroke-width:0.5;" width="140.6631" x="724.7241" y="50"/><text fill="#000000" font-family="sans-serif" font-size="14" lengthAdjust="spacing" textLength="126.6631" x="731.7241" y="69.9951">ChatSessionClient</text><rect fill="#E2E2F0" height="30.2969" rx="2.5" ry="2.5" style="stroke:#181818;stroke-width:0.5;" width="140.6631" x="724.7241" y="846.2891"/><text fill="#000000" font-family="sans-serif" font-size="14" lengthAdjust="spacing" textLength="126.6631" x="731.7241" y="866.2842">ChatSessionClient</text><rect fill="#E2E2F0" height="30.2969" rx="2.5" ry="2.5" style="stroke:#181818;stroke-width:0.5;" width="106.1006" x="875.3872" y="50"/><text fill="#000000" font-family="sans-serif" font-size="14" lengthAdjust="spacing" textLength="92.1006" x="882.3872" y="69.9951">SpeechClient</text><rect fill="#E2E2F0" height="30.2969" rx="2.5" ry="2.5" style="stroke:#181818;stroke-width:0.5;" width="106.1006" x="875.3872" y="846.2891"/><text fill="#000000" font-family="sans-serif" font-size="14" lengthAdjust="spacing" textLength="92.1006" x="882.3872" y="866.2842">SpeechClient</text><rect fill="#E2E2F0" height="30.2969" rx="2.5" ry="2.5" style="stroke:#181818;stroke-width:0.5;" width="127.8115" x="991.4878" y="50"/><text fill="#000000" font-family="sans-serif" font-size="14" lengthAdjust="spacing" textLength="113.8115" x="998.4878" y="69.9951">PlaySoundClient</text><rect fill="#E2E2F0" height="30.2969" rx="2.5" ry="2.5" style="stroke:#181818;stroke-width:0.5;" width="127.8115" x="991.4878" y="846.2891"/><text fill="#000000" font-family="sans-serif" font-size="14" lengthAdjust="spacing" textLength="113.8115" x="998.4878" y="866.2842">PlaySoundClient</text><rect fill="#E2E2F0" height="30.2969" rx="2.5" ry="2.5" style="stroke:#181818;stroke-width:0.5;" width="141.6475" x="1129.2993" y="50"/><text fill="#000000" font-family="sans-serif" font-size="14" lengthAdjust="spacing" textLength="127.6475" x="1136.2993" y="69.9951">HistoryStoreClient</text><rect fill="#E2E2F0" height="30.2969" rx="2.5" ry="2.5" style="stroke:#181818;stroke-width:0.5;" width="141.6475" x="1129.2993" y="846.2891"/><text fill="#000000" font-family="sans-serif" font-size="14" lengthAdjust="spacing" textLength="127.6475" x="1136.2993" y="866.2842">HistoryStoreClient</text><rect fill="#E2E2F0" height="30.2969" rx="2.5" ry="2.5" style="stroke:#181818;stroke-width:0.5;" width="116.2861" x="1280.9468" y="50"/><text fill="#000000" font-family="sans-serif" font-size="14" lengthAdjust="spacing" textLength="102.2861" x="1287.9468" y="69.9951">FileStoreClient</text><rect fill="#E2E2F0" height="30.2969" rx="2.5" ry="2.5" style="stroke:#181818;stroke-width:0.5;" width="116.2861" x="1280.9468" y="846.2891"/><text fill="#000000" font-family="sans-serif" font-size="14" lengthAdjust="spacing" textLength="102.2861" x="1287.9468" y="866.2842">FileStoreClient</text><rect fill="#E2E2F0" height="30.2969" rx="2.5" ry="2.5" style="stroke:#181818;stroke-width:0.5;" width="115.5" x="1407.2329" y="50"/><text fill="#000000" font-family="sans-serif" font-size="14" lengthAdjust="spacing" textLength="101.5" x="1414.2329" y="69.9951">GreetingClient</text><rect fill="#E2E2F0" height="30.2969" rx="2.5" ry="2.5" style="stroke:#181818;stroke-width:0.5;" width="115.5" x="1407.2329" y="846.2891"/><text fill="#000000" font-family="sans-serif" font-size="14" lengthAdjust="spacing" textLength="101.5" x="1414.2329" y="866.2842">GreetingClient</text><rect fill="#E2E2F0" height="30.2969" rx="2.5" ry="2.5" style="stroke:#181818;stroke-width:0.5;" width="118.3096" x="1537.7046" y="50"/><text fill="#000000" font-family="sans-serif" font-size="14" lengthAdjust="spacing" textLength="104.3096" x="1544.7046" y="69.9951">AssistantClient</text><rect fill="#E2E2F0" height="30.2969" rx="2.5" ry="2.5" style="stroke:#181818;stroke-width:0.5;" width="118.3096" x="1537.7046" y="846.2891"/><text fill="#000000" font-family="sans-serif" font-size="14" lengthAdjust="spacing" textLength="104.3096" x="1544.7046" y="866.2842">AssistantClient</text><rect fill="#FFFFFF" height="100.3984" style="stroke:#181818;stroke-width:1;" width="10" x="553.9126" y="452.0234"/><rect fill="#FFFFFF" height="508.9297" style="stroke:#181818;stroke-width:1;" width="10" x="1591.8594" y="165.6953"/><path d="M10,98.2969 L86.624,98.2969 L86.624,105.4297 L76.624,115.4297 L10,115.4297 L10,98.2969 " fill="#EEEEEE" style="stroke:#000000;stroke-width:1.5;"/><rect fill="none" height="542.1953" style="stroke:#000000;stroke-width:1.5;" width="1666.0142" x="10" y="98.2969"/><text fill="#000000" font-family="sans-serif" font-size="13" font-weight="bold" lengthAdjust="spacing" textLength="31.624" x="25" y="111.3638">loop</text><text fill="#000000" font-family="sans-serif" font-size="11" font-weight="bold" lengthAdjust="spacing" textLength="110.6768" x="101.624" y="110.5073">[User Interaction]</text><polygon fill="#181818" points="170.3545,132.5625,180.3545,136.5625,170.3545,140.5625,174.3545,136.5625" style="stroke:#181818;stroke-width:1;"/><line style="stroke:#181818;stroke-width:1;" x1="38.9551" x2="176.3545" y1="136.5625" y2="136.5625"/><text fill="#000000" font-family="sans-serif" font-size="13" lengthAdjust="spacing" textLength="119.3994" x="45.9551" y="131.4966">Wake up assistant</text><polygon fill="#181818" points="1579.8594,161.6953,1589.8594,165.6953,1579.8594,169.6953,1583.8594,165.6953" style="stroke:#181818;stroke-width:1;"/><line style="stroke:#181818;stroke-width:1;" x1="182.3545" x2="1585.8594" y1="165.6953" y2="165.6953"/><text fill="#000000" font-family="sans-serif" font-size="13" lengthAdjust="spacing" textLength="98.0967" x="189.3545" y="160.6294">Notify wake-up</text><polygon fill="#181818" points="1475.9829,190.8281,1465.9829,194.8281,1475.9829,198.8281,1471.9829,194.8281" style="stroke:#181818;stroke-width:1;"/><line style="stroke:#181818;stroke-width:1;" x1="1469.9829" x2="1590.8594" y1="194.8281" y2="194.8281"/><text fill="#000000" font-family="sans-serif" font-size="13" lengthAdjust="spacing" textLength="82.0942" x="1481.9829" y="189.7622">Get greeting</text><polygon fill="#181818" points="1579.8594,219.9609,1589.8594,223.9609,1579.8594,227.9609,1583.8594,223.9609" style="stroke:#181818;stroke-width:1;"/><line style="stroke:#181818;stroke-width:1;" x1="1464.9829" x2="1585.8594" y1="223.9609" y2="223.9609"/><text fill="#000000" font-family="sans-serif" font-size="13" lengthAdjust="spacing" textLength="102.8765" x="1471.9829" y="218.895">Return greeting</text><polygon fill="#181818" points="939.4375,249.0938,929.4375,253.0938,939.4375,257.0938,935.4375,253.0938" style="stroke:#181818;stroke-width:1;"/><line style="stroke:#181818;stroke-width:1;" x1="933.4375" x2="1590.8594" y1="253.0938" y2="253.0938"/><text fill="#000000" font-family="sans-serif" font-size="13" lengthAdjust="spacing" textLength="86.0361" x="945.4375" y="248.0278">Play greeting</text><polygon fill="#181818" points="312.1382,278.2266,302.1382,282.2266,312.1382,286.2266,308.1382,282.2266" style="stroke:#181818;stroke-width:1;"/><line style="stroke:#181818;stroke-width:1;" x1="306.1382" x2="1590.8594" y1="282.2266" y2="282.2266"/><text fill="#000000" font-family="sans-serif" font-size="13" lengthAdjust="spacing" textLength="139.1724" x="318.1382" y="277.1606">Listen to user speech</text><polygon fill="#181818" points="1579.8594,307.3594,1589.8594,311.3594,1579.8594,315.3594,1583.8594,311.3594" style="stroke:#181818;stroke-width:1;"/><line style="stroke:#181818;stroke-width:1;" x1="301.1382" x2="1585.8594" y1="311.3594" y2="311.3594"/><text fill="#000000" font-family="sans-serif" font-size="13" lengthAdjust="spacing" textLength="117.5205" x="308.1382" y="306.2935">Return audio data</text><polygon fill="#181818" points="1066.3936,336.4922,1056.3936,340.4922,1066.3936,344.4922,1062.3936,340.4922" style="stroke:#181818;stroke-width:1;"/><line style="stroke:#181818;stroke-width:1;" x1="1060.3936" x2="1590.8594" y1="340.4922" y2="340.4922"/><text fill="#000000" font-family="sans-serif" font-size="13" lengthAdjust="spacing" textLength="122.3955" x="1072.3936" y="335.4263">Play prompt sound</text><polygon fill="#181818" points="450.0078,365.625,440.0078,369.625,450.0078,373.625,446.0078,369.625" style="stroke:#181818;stroke-width:1;"/><line style="stroke:#181818;stroke-width:1;" x1="444.0078" x2="1590.8594" y1="369.625" y2="369.625"/><text fill="#000000" font-family="sans-serif" font-size="13" lengthAdjust="spacing" textLength="149.1445" x="456.0078" y="364.5591">Convert speech to text</text><polygon fill="#181818" points="1579.8594,394.7578,1589.8594,398.7578,1579.8594,402.7578,1583.8594,398.7578" style="stroke:#181818;stroke-width:1;"/><line style="stroke:#181818;stroke-width:1;" x1="439.0078" x2="1585.8594" y1="398.7578" y2="398.7578"/><text fill="#000000" font-family="sans-serif" font-size="13" lengthAdjust="spacing" textLength="73.9692" x="446.0078" y="393.6919">Return text</text><path d="M507.8081,413.7578 L572.251,413.7578 L572.251,420.8906 L562.251,430.8906 L507.8081,430.8906 L507.8081,413.7578 " fill="#EEEEEE" style="stroke:#000000;stroke-width:1.5;"/><rect fill="none" height="219.7344" style="stroke:#000000;stroke-width:1.5;" width="1158.2061" x="507.8081" y="413.7578"/><text fill="#000000" font-family="sans-serif" font-size="13" font-weight="bold" lengthAdjust="spacing" textLength="19.4429" x="522.8081" y="426.8247">alt</text><text fill="#000000" font-family="sans-serif" font-size="11" font-weight="bold" lengthAdjust="spacing" textLength="133.2622" x="587.251" y="425.9683">[User has a question]</text><polygon fill="#181818" points="574.9126,448.0234,564.9126,452.0234,574.9126,456.0234,570.9126,452.0234" style="stroke:#181818;stroke-width:1;"/><line style="stroke:#181818;stroke-width:1;" x1="568.9126" x2="1590.8594" y1="452.0234" y2="452.0234"/><text fill="#000000" font-family="sans-serif" font-size="13" lengthAdjust="spacing" textLength="136.1509" x="580.9126" y="446.9575">Process user request</text><line style="stroke:#181818;stroke-width:1;" x1="563.9126" x2="605.9126" y1="481.1563" y2="481.1563"/><line style="stroke:#181818;stroke-width:1;" x1="605.9126" x2="605.9126" y1="481.1563" y2="494.1563"/><line style="stroke:#181818;stroke-width:1;" x1="564.9126" x2="605.9126" y1="494.1563" y2="494.1563"/><polygon fill="#181818" points="574.9126,490.1563,564.9126,494.1563,574.9126,498.1563,570.9126,494.1563" style="stroke:#181818;stroke-width:1;"/><text fill="#000000" font-family="sans-serif" font-size="13" lengthAdjust="spacing" textLength="124.1792" x="570.9126" y="476.0903">Generate response</text><polygon fill="#181818" points="783.0557,519.2891,793.0557,523.2891,783.0557,527.2891,787.0557,523.2891" style="stroke:#181818;stroke-width:1;"/><line style="stroke:#181818;stroke-width:1;" x1="563.9126" x2="789.0557" y1="523.2891" y2="523.2891"/><text fill="#000000" font-family="sans-serif" font-size="13" lengthAdjust="spacing" textLength="207.1431" x="570.9126" y="518.2231">Add response to session history</text><polygon fill="#181818" points="1579.8594,548.4219,1589.8594,552.4219,1579.8594,556.4219,1583.8594,552.4219" style="stroke:#181818;stroke-width:1;"/><line style="stroke:#181818;stroke-width:1;" x1="558.9126" x2="1585.8594" y1="552.4219" y2="552.4219"/><text fill="#000000" font-family="sans-serif" font-size="13" lengthAdjust="spacing" textLength="107.415" x="565.9126" y="547.356">Return response</text><polygon fill="#181818" points="939.4375,577.5547,929.4375,581.5547,939.4375,585.5547,935.4375,581.5547" style="stroke:#181818;stroke-width:1;"/><line style="stroke:#181818;stroke-width:1;" x1="933.4375" x2="1590.8594" y1="581.5547" y2="581.5547"/><text fill="#000000" font-family="sans-serif" font-size="13" lengthAdjust="spacing" textLength="90.5747" x="945.4375" y="576.4888">Play response</text><line style="stroke:#000000;stroke-width:1;stroke-dasharray:2.0,2.0;" x1="507.8081" x2="1666.0142" y1="590.5547" y2="590.5547"/><text fill="#000000" font-family="sans-serif" font-size="11" font-weight="bold" lengthAdjust="spacing" textLength="141.2275" x="512.8081" y="600.7651">[User has no question]</text><polygon fill="#181818" points="939.4375,621.4922,929.4375,625.4922,939.4375,629.4922,935.4375,625.4922" style="stroke:#181818;stroke-width:1;"/><line style="stroke:#181818;stroke-width:1;" x1="933.4375" x2="1590.8594" y1="625.4922" y2="625.4922"/><text fill="#000000" font-family="sans-serif" font-size="13" lengthAdjust="spacing" textLength="108.1514" x="945.4375" y="620.4263">Play rest prompt</text><line style="stroke:#181818;stroke-width:1;" x1="558.9126" x2="600.9126" y1="668.625" y2="668.625"/><line style="stroke:#181818;stroke-width:1;" x1="600.9126" x2="600.9126" y1="668.625" y2="681.625"/><line style="stroke:#181818;stroke-width:1;" x1="559.9126" x2="600.9126" y1="681.625" y2="681.625"/><polygon fill="#181818" points="569.9126,677.625,559.9126,681.625,569.9126,685.625,565.9126,681.625" style="stroke:#181818;stroke-width:1;"/><text fill="#000000" font-family="sans-serif" font-size="13" lengthAdjust="spacing" textLength="70.605" x="565.9126" y="663.5591">Start timer</text><path d="M507.8081,696.625 L572.251,696.625 L572.251,703.7578 L562.251,713.7578 L507.8081,713.7578 L507.8081,696.625 " fill="#EEEEEE" style="stroke:#000000;stroke-width:1.5;"/><rect fill="none" height="133.6641" style="stroke:#000000;stroke-width:1.5;" width="899.4248" x="507.8081" y="696.625"/><text fill="#000000" font-family="sans-serif" font-size="13" font-weight="bold" lengthAdjust="spacing" textLength="19.4429" x="522.8081" y="709.6919">alt</text><text fill="#000000" font-family="sans-serif" font-size="11" font-weight="bold" lengthAdjust="spacing" textLength="110.1182" x="587.251" y="708.8354">[Session timeout]</text><polygon fill="#181818" points="1188.123,730.8906,1198.123,734.8906,1188.123,738.8906,1192.123,734.8906" style="stroke:#181818;stroke-width:1;"/><line style="stroke:#181818;stroke-width:1;" x1="558.9126" x2="1194.123" y1="734.8906" y2="734.8906"/><text fill="#000000" font-family="sans-serif" font-size="13" lengthAdjust="spacing" textLength="135.7446" x="565.9126" y="729.8247">Store session history</text><polygon fill="#181818" points="1327.0898,760.0234,1337.0898,764.0234,1327.0898,768.0234,1331.0898,764.0234" style="stroke:#181818;stroke-width:1;"/><line style="stroke:#181818;stroke-width:1;" x1="1200.123" x2="1333.0898" y1="764.0234" y2="764.0234"/><text fill="#000000" font-family="sans-serif" font-size="13" lengthAdjust="spacing" textLength="105.5044" x="1207.123" y="758.9575">Store audio files</text><polygon fill="#181818" points="783.0557,789.1563,793.0557,793.1563,783.0557,797.1563,787.0557,793.1563" style="stroke:#181818;stroke-width:1;"/><line style="stroke:#181818;stroke-width:1;" x1="558.9126" x2="789.0557" y1="793.1563" y2="793.1563"/><text fill="#000000" font-family="sans-serif" font-size="13" lengthAdjust="spacing" textLength="76.959" x="565.9126" y="788.0903">End session</text><polygon fill="#181818" points="783.0557,818.2891,793.0557,822.2891,783.0557,826.2891,787.0557,822.2891" style="stroke:#181818;stroke-width:1;"/><line style="stroke:#181818;stroke-width:1;" x1="558.9126" x2="789.0557" y1="822.2891" y2="822.2891"/><text fill="#000000" font-family="sans-serif" font-size="13" lengthAdjust="spacing" textLength="126.7373" x="565.9126" y="817.2231">Create new session</text><!--SRC=[ZPJDJiCm3CVlVGgBEo_G0nAQO21j254Xpb7hRH4b2OdBsDlZ96sKb7KmQMld_FoFuu-8bhI5LuUsCiAIRAKHYk3gJRoZNVKI5Ls1S13-byX6Ea8brJx3agr4Nx3LUoL9QfN1cNMclDdccfjjkRmw26hGkL8jivPuOn3RGqP6Gmazz-BKw45r6PTi9Vh0PzJsrF0FPdHkBXtkPOzpEjbAT6qHgKpfPAggNciJIWMFYj2ADcGE-1ECrpUnIdLum63Ost5GB1oWiEYfsyaSTwdXIPFSdU38mFLWga1xzIz1EAV3uipcHQSmQrWZmNuAsjFJqjczNv06gqg7C_AnPdMeoPzmwi9wV0NICFWSkLXwxvUWIs69ePCQEa6YMjeiTSaOdB7wmn2uq3XBJbdhrx3IwWijZS7vM0c_Ow8pxbAOWOzbwobsmu5RHy3dW2vroLAsDbiEtUgMXoTcoMBmIqwf5_meJaP-JzvhLDoF35XqHYk7SoeRpXfkkow1_hGkBi0XJj3ST-dGl_Rgi0ZqqfcBTYg4iEUWKWQL_bSAvt8qTa5Kv3xmtohFM4Cyza3oWs_LBExvi5M-dcFY0gs7A3fgvPUE5-N7sNJcdFTBry_a51jznsPNBTNjJdMJ-2ApikZFeV2OK3xx3m00]--></g></svg>